<?xml version="1.0" encoding="UTF-8"?><svg id="a" xmlns="http://www.w3.org/2000/svg" viewBox="0 0 200 200"><defs><style>.b{fill:#f48e2e;}.c,.d{fill:#231f20;}.e{font-size:13.78px;}.e,.f{fill:#fff;}.e,.d{font-family:StencilStd, Stencil Std;}.f{font-family:Geneva, Geneva;font-size:11.49px;}.d{font-size:22.48px;}</style></defs><path class="c" d="M99.98,188.82c-48.19,0-87.85-38.72-88.78-87.11C10.25,52.75,49.32,12.14,98.29,11.2c23.72-.45,46.2,8.35,63.3,24.8,17.1,16.45,26.76,38.57,27.22,62.29h0c.94,48.97-38.12,89.57-87.09,90.52-.58,.01-1.16,.02-1.74,.02Zm.05-146.6c-.38,0-.76,0-1.15,.01-15.43,.3-29.82,6.59-40.52,17.71-10.7,11.12-16.43,25.74-16.13,41.17,.61,31.47,26.41,56.66,57.75,56.66,.38,0,.75,0,1.13-.01,31.85-.62,57.27-27.03,56.65-58.88h0c-.3-15.43-6.59-29.82-17.71-40.52-10.85-10.43-25.02-16.14-40.03-16.14Z"/><text class="e" transform="translate(37.67 95.38) rotate(-82.24) scale(1.02 1.5)"><tspan x="0" y="0">r</tspan></text><text class="e" transform="translate(39.28 84.22) rotate(-72.9) scale(1.02 1.5)"><tspan x="0" y="0">e</tspan></text><text class="e" transform="translate(42.23 74.84) rotate(-64.19) scale(1.02 1.5)"><tspan x="0" y="0">f</tspan></text><text class="e" transform="translate(46.3 66.32) rotate(-54.69) scale(1.02 1.5)"><tspan x="0" y="0">r</tspan></text><text class="e" transform="translate(53.16 57) rotate(-46.25) scale(1.02 1.5)"><tspan x="0" y="0">i</tspan></text><text class="e" transform="translate(57.88 51.96) rotate(-38.28) scale(1.02 1.5)"><tspan x="0" y="0">g</tspan></text><text class="e" transform="translate(65.99 45.64) rotate(-29.01) scale(1.02 1.5)"><tspan x="0" y="0">e</tspan></text><text class="e" transform="translate(74.53 40.87) rotate(-19.3) scale(1.02 1.5)"><tspan x="0" y="0">r</tspan></text><text class="e" transform="translate(85.42 37.16) rotate(-9.32) scale(1.02 1.5)"><tspan x="0" y="0">a</tspan></text><text class="e" transform="translate(95.56 35.51) rotate(.56) scale(1.02 1.5)"><tspan x="0" y="0">n</tspan></text><text class="e" transform="translate(106.65 35.71) rotate(10.19) scale(1.02 1.5)"><tspan x="0" y="0">t</tspan></text><text class="e" transform="translate(116.47 37.66) rotate(17.22) scale(1.02 1.5)"><tspan x="0" y="0"> </tspan></text><text class="e" transform="translate(121.68 39.06) rotate(25.28) scale(1.02 1.5)"><tspan x="0" y="0">H</tspan></text><text class="e" transform="translate(132.83 44.43) rotate(35.86) scale(1.02 1.5)"><tspan x="0" y="0">U</tspan></text><text class="e" transform="translate(141.84 51.01) rotate(45.86) scale(1.02 1.5)"><tspan x="0" y="0">N</tspan></text><text class="e" transform="translate(149.51 59.05) rotate(55.33) scale(1.02 1.5)"><tspan x="0" y="0">T</tspan></text><text class="e" transform="translate(154.99 67.02) rotate(63.93) scale(1.02 1.5)"><tspan x="0" y="0">E</tspan></text><text class="e" transform="translate(159.31 75.78) rotate(73.3) scale(1.02 1.5)"><tspan x="0" y="0">R</tspan></text><text class="e" transform="translate(162.5 86.88) rotate(82.68) scale(1.02 1.5)"><tspan x="0" y="0">S</tspan></text><text class="f" transform="translate(33.86 129.1) rotate(63.35) scale(1.23 1)"><tspan x="0" y="0">w</tspan></text><text class="f" transform="translate(39.22 139.43) rotate(54.98) scale(1.23 1)"><tspan x="0" y="0">e</tspan></text><text class="f" transform="translate(44.17 146.32) rotate(49.47) scale(1.23 1)"><tspan x="0" y="0"> </tspan></text><text class="f" transform="translate(47.4 150.22) rotate(43.8) scale(1.23 1)"><tspan x="0" y="0">b</tspan></text><text class="f" transform="translate(54 156.49) rotate(36.65) scale(1.23 1)"><tspan x="0" y="0">u</tspan></text><text class="f" transform="translate(61 161.66) rotate(29.74) scale(1.23 1)"><tspan x="0" y="0">y</tspan></text><text class="f" transform="translate(68.36 165.76) rotate(24.36) scale(1.23 1)"><tspan x="0" y="0"> </tspan></text><text class="f" transform="translate(72.94 167.9) rotate(18.93) scale(1.23 1)"><tspan x="0" y="0">u</tspan></text><text class="f" transform="translate(81.15 170.66) rotate(12.51) scale(1.23 1)"><tspan x="0" y="0">s</tspan></text><text class="f" transform="translate(88.59 172.32) rotate(6.22) scale(1.23 1)"><tspan x="0" y="0">e</tspan></text><text class="f" transform="translate(97.12 173.23) rotate(-.6) scale(1.23 1)"><tspan x="0" y="0">d</tspan></text><text class="f" transform="translate(105.96 173.04) rotate(-6.1) scale(1.23 1)"><tspan x="0" y="0"> </tspan></text><text class="f" transform="translate(110.87 172.52) rotate(-10.32) scale(1.23 1)"><tspan x="0" y="0">r</tspan></text><text class="f" transform="translate(116.61 171.52) rotate(-16.05) scale(1.23 1)"><tspan x="0" y="0">e</tspan></text><text class="f" transform="translate(124.74 169.1) rotate(-21.8) scale(1.23 1)"><tspan x="0" y="0">f</tspan></text><text class="f" transform="translate(130.09 166.94) rotate(-26.4) scale(1.23 1)"><tspan x="0" y="0">r</tspan></text><text class="f" transform="translate(135.13 164.4) rotate(-30.09) scale(1.23 1)"><tspan x="0" y="0">i</tspan></text><text class="f" transform="translate(138.32 162.67) rotate(-35.15) scale(1.23 1)"><tspan x="0" y="0">g</tspan></text><text class="f" transform="translate(145.74 157.39) rotate(-42.35) scale(1.23 1)"><tspan x="0" y="0">e</tspan></text><text class="f" transform="translate(151.98 151.58) rotate(-48.27) scale(1.23 1)"><tspan x="0" y="0">r</tspan></text><text class="f" transform="translate(155.88 147.27) rotate(-54.09) scale(1.23 1)"><tspan x="0" y="0">a</tspan></text><text class="f" transform="translate(160.75 140.52) rotate(-61.27) scale(1.23 1)"><tspan x="0" y="0">n</tspan></text><text class="f" transform="translate(164.85 132.89) rotate(-67.79) scale(1.23 1)"><tspan x="0" y="0">t</tspan></text><text class="d" transform="translate(167.46 126.65) rotate(-74.86) scale(1.23 1)"><tspan x="0" y="0"> </tspan></text><g><rect class="b" x="75.74" y="83.67" width="49.81" height="44.43"/><path class="b" d="M100.45,70.57c-10.27,0-19.32,3.64-24.71,9.19v23.81c5.39,5.55,14.45,9.19,24.71,9.19s19.55-3.74,24.92-9.41v-4.44c0-.06,.02-.1,.04-.14v-18.72c-5.36-5.7-14.53-9.47-24.96-9.47Z"/><path class="b" d="M125.41,111.49s0-.03,0-.04c0,0,0-.01,0-.02v-.03h0c-5.38-5.61-14.56-9.31-25-9.31s-19.28,3.56-24.69,9c0,.02,.01,.05,.01,.07v23.6c5.42,5.43,14.45,8.99,24.68,8.99s19.61-3.69,24.99-9.3v-22.84s0-.06,.01-.08c0-.01,0-.03,0-.04Z"/><path class="b" d="M120.87,56.61c-.11-.38-.28-.65-.5-.85-.8-.24-1.63-.36-2.47-.42-.72,.06-1.44,.16-2.16,.17-1.32,.02-2.62-.23-3.94,0-.12,.02-.21,0-.29-.04-1.49,.37-2.84,.9-4.36,1.93-.51,.34-1.02,.57-1.53,.73v5.77c0,.19-.09,.33-.21,.43,.02,.55,0,1.11-.02,1.66-.04,.93,0,1.84,.05,2.77,.06,1.08,.03,2.47-.56,3.44-.26,.42-.73,.63-1.18,.34-.4-.26-.49-.76-.5-1.2-.02-.5,.04-1,.03-1.5-.01-.87-.06-1.73-.06-2.6-.01-1.75-.04-3.5-.04-5.24-.2,0-.4,0-.6,0-.04,0-.08,0-.12-.02h0c-.15,.02-.26-.11-.29-.25-.03-.17-.05-.35,0-.51,0-.01,.02-.02,.02-.04,.01-.03,.03-.06,.05-.08,.06-.11,.15-.2,.28-.25,.19-.06,.38-.05,.58-.04-.05,0,.06,0,.07,0,.04,0,.07,0,.11,0,.06,0,.12,0,.19,0,.02,0,.05,0,.07,0,0-.25,0-.5-.03-.75-.02-.23-.03-.46-.05-.69,0-.03,0-.07-.01-.1,0,0-.01-.04-.02-.05v-.02h-.04c-.07,0-.15,0-.2,.01-.15,.03-.36-.04-.36-.23,0-.07,.01-.15,.02-.22,0,0,0-.01,0-.02v-.07h-.01s0-.02,0-.02v-.11c-.24,0-.49-.01-.73-.05-.05,0-.08-.03-.11-.06-.73,.09-1.54,.13-2.35,.13,.02,.15,.03,.3,.01,.45-.01,.08-.07,.15-.14,.18-.08,.04-.16,.04-.24,0-.03-.01-.07-.03-.1-.04-.06-.02-.13-.03-.2-.04-.02,.03-.03,.07-.05,.1,0,.33,0,.66,.02,.99,.01,.15,.02,.31,.04,.46v.02s.05,0,.08,.01c.07,0,.05,0,.11,0,.1,0,.19-.02,.29,0,.32,.05,.37,.37,.33,.63h0c.12,0,.24-.01,.36-.01,.12,0,.22,.06,.27,.18,.04,.1,.02,.2,.01,.3v-.06c0,.1-.03,.18-.11,.24-.08,.06-.17,.05-.26,.02,0,0,0,0,0,0h-.03s-.05-.02-.07-.03c-.04,0-.07-.01-.11-.01-.19,0-.39,.02-.58,.02-.09,0-.17-.04-.22-.1-.04,0-.07,.02-.08,.04-.09,.1-.1,.51-.11,.64-.03,.29,0,.58,.02,.87,.07,1.26,.02,2.54,.02,3.8,0,.34-.53,.38-.53,.04v-.49l-.07,.04c-.13,.05-.29,.03-.41-.03-.03-.01-.05-.04-.07-.06-.12,.06-.25,.1-.38,.11,.08,.9,.04,1.82-.03,2.72,0,.03,0,.05-.02,.07,.1,.01,.21,.02,.31,.03h.07c.07,0,.15,0,.22,0,.03,0,.05,0,.08,0h.01s0,0,0,0h.02s.05-.02,.08-.03c.02,0,.09-.04,.04-.01,.04-.02,.08-.03,.12-.04,0-.15-.01-.32,.09-.45,.09-.11,.27-.12,.38-.03,.08,.07,.1,.18,.08,.28h0s0,.01,0,.02v.02c0,.08,0,.15,0,.23,0,.22,0,.44,0,.65,0,.43,.02,.86,.02,1.29h0c.03,.19,.06,.39,.08,.58,.02,.2,.03,.46-.06,.65h0c-.02,.12-.11,.19-.22,.21-.02,0-.04,.02-.06,.03-.19,.05-.39,.03-.59,0-.08-.01-.17-.02-.25-.04-.03,0-.06,0-.09-.01,0,0-.01,0-.02,0h-.03c-.19,0-.39,.05-.57,0-.1-.03-.17-.08-.24-.15-.06-.05-.12-.12-.15-.21-.02-.06-.02-.12-.03-.17,0-.01,0-.02,0-.04h0c0-.1-.01-.19-.02-.28,0-.23-.02-.45-.03-.68-.02-.46-.03-.91-.02-1.37-.26,0-.57-.21-.55-.49,.06-1.09,.07-2.18,.07-3.27-.17-1.3-.07-2.65-.04-3.95,.03-1.43,.06-2.85-.04-4.28,0-.02,0-.03,0-.04-1.2-.41-2.23-1.14-3.4-1.65-2.81-1.22-6.36-1.16-9.56-1.11-.1,.04-.2,.08-.29,.11-.43,.2-.89,.35-1.35,.51-.28,.1-.48,.18-.68,.36-.1,.09-.18,.21-.26,.34,0,.02,0,.05,0,.07,0,.46,.03,.92,.06,1.37,.07,.32,.19,.65,.35,.89,.03,.04,.05,.08,.08,.12,0,.01,.06,.07,.08,.09,.06,.06,.13,.12,.2,.17,.02,.01,.04,.03,.05,.03,.05,.02,.09,.04,.14,.06,.02,0,.04,.01,.06,.02,.03,0,.06,0,.09,.01,.14-.06,.3-.07,.43,0,.39,.25,.81,.45,1.23,.65h.02s.04-.01,.06-.02c1.35-.14,2.14,1.08,2.61,2.17,.26,.62,.45,1.27,.62,1.93,.15,.57,.42,1.24,.37,1.83-.06,.58-.47,.79-1,.82-.22,.01-.5-.04-.68,.13-.25,.24-.13,.89-.06,1.21,.05,.12,.1,.24,.14,.37,.29,.53,.94,1,1.3,1.4,.6,.65,1.21,1.34,1.51,2.19,3.47,2.69,7.86,4.3,12.63,4.3s9.37-1.69,12.87-4.49c.02-.03,.02-.05,.04-.08,.73-.85,1.48-1.7,2.12-2.63,.3-.42,1.02-1.25,.74-1.81-.12-.24-.62-.67-.91-.59-.31,.09-.71-.1-.71-.47,.01-1.06,.17-2.11,.45-3.13,.24-.88,.54-1.92,1.12-2.64,.5-.61,1.26-.81,2-.95,.37-.07,.82-.12,1.23-.24,.12-.08,.25-.16,.37-.24,.1-.07,.2-.13,.3-.2,.13-.09,.27-.2,.4-.31,.09-.15,.15-.31,.19-.49,.02-.3,.04-.59,.05-.89-.02-.25-.07-.5-.13-.71Zm-26.45,9.71c-.09,.39-.28,.72-.7,.81-.48,.1-1.02,.09-1.51,.1-.52,.02-1.12,.08-1.63-.06-.84-.24-1.48-.94-1.93-1.65-.28-.43-.48-.88-.65-1.34-.33-.44-.5-.99-.53-1.55-.11-.31-.24-.62-.39-.91-.19-.36-.39-.76-.3-1.18,.2-.95,1.73-.83,2.45-.78,.21,.01,.42,.04,.63,.08,.06,0,.12-.01,.18-.01,.37,0,.7,.07,1,.18,1.01,.2,1.95,.6,2.48,1.48,.55,.92,.86,2.06,.96,3.12,.05,.55,.08,1.18-.05,1.72Zm19.89-3.52c-.23,.7-.47,1.41-.73,2.1-.24,.64-.55,1.29-1.09,1.74-.38,.32-.86,.38-1.34,.42-.56,.05-1.12,.07-1.68,.05-.48-.02-.96-.05-1.32-.41-.76-.78-.44-2.02-.13-2.95-.06-.1-.08-.22-.04-.35,.01-.04,.03-.09,.05-.13h0v-.03c.07-.16,.14-.32,.19-.49-.12-.21-.12-.48,.08-.64,0-.05,0-.09,0-.14,.17-.62,.49-1.18,1.03-1.55,.48-.33,1.05-.47,1.62-.54,.58-.07,1.16-.06,1.75-.07,.5,0,1.05-.02,1.46-.14,.31-.09,.72,.1,.71,.47-.01,.92-.28,1.81-.57,2.67Z"/></g></svg>